<?xml version="1.0" encoding="UTF-8"?>
<svg xmlns="http://www.w3.org/2000/svg" xmlns:xlink="http://www.w3.org/1999/xlink" width="854" height="480" viewBox="0 0 854 480">
<defs>
<g>
<g id="glyph-0-0">
<path d="M 0.351562 -9.011719 L 8.378906 -9.011719 L 8.390625 -6.320312 L 8.007812 -6.320312 C 7.882812 -7.28125 7.523438 -7.929688 6.925781 -8.269531 C 6.59375 -8.457031 6.09375 -8.558594 5.429688 -8.574219 L 5.429688 -1.554688 C 5.429688 -1.066406 5.515625 -0.738281 5.6875 -0.578125 C 5.859375 -0.417969 6.214844 -0.339844 6.757812 -0.339844 L 6.757812 0 L 2.003906 0 L 2.003906 -0.339844 C 2.527344 -0.339844 2.871094 -0.417969 3.042969 -0.582031 C 3.214844 -0.746094 3.300781 -1.070312 3.300781 -1.554688 L 3.300781 -8.574219 C 2.648438 -8.558594 2.152344 -8.453125 1.804688 -8.269531 C 1.164062 -7.921875 0.804688 -7.273438 0.722656 -6.320312 L 0.339844 -6.320312 Z "/>
</g>
<g id="glyph-0-1">
<path d="M 0.214844 -0.320312 C 0.457031 -0.351562 0.636719 -0.414062 0.75 -0.515625 C 0.867188 -0.617188 0.925781 -0.824219 0.925781 -1.125 L 0.925781 -7.917969 C 0.925781 -8.183594 0.875 -8.367188 0.78125 -8.472656 C 0.6875 -8.578125 0.496094 -8.648438 0.214844 -8.683594 L 0.214844 -9.011719 L 2.792969 -9.011719 L 2.792969 -5.261719 C 3.066406 -5.589844 3.355469 -5.84375 3.65625 -6.023438 C 3.957031 -6.203125 4.296875 -6.296875 4.675781 -6.296875 C 5.1875 -6.296875 5.609375 -6.148438 5.945312 -5.847656 C 6.277344 -5.550781 6.445312 -5.046875 6.445312 -4.328125 L 6.445312 -1.125 C 6.445312 -0.828125 6.496094 -0.628906 6.597656 -0.535156 C 6.699219 -0.441406 6.871094 -0.371094 7.109375 -0.320312 L 7.109375 0 L 3.976562 0 L 3.976562 -0.320312 C 4.214844 -0.367188 4.378906 -0.433594 4.464844 -0.515625 C 4.550781 -0.597656 4.597656 -0.785156 4.597656 -1.074219 L 4.597656 -4.304688 C 4.597656 -4.609375 4.566406 -4.835938 4.503906 -4.988281 C 4.402344 -5.261719 4.195312 -5.398438 3.886719 -5.398438 C 3.65625 -5.398438 3.417969 -5.289062 3.171875 -5.078125 C 2.929688 -4.867188 2.804688 -4.71875 2.804688 -4.640625 L 2.804688 -1.074219 C 2.804688 -0.785156 2.847656 -0.597656 2.9375 -0.515625 C 3.023438 -0.433594 3.1875 -0.367188 3.425781 -0.320312 L 3.425781 0 L 0.214844 0 Z "/>
</g>
<g id="glyph-0-2">
<path d="M 0.300781 -3.058594 C 0.300781 -4.082031 0.570312 -4.878906 1.117188 -5.445312 C 1.660156 -6.011719 2.316406 -6.296875 3.085938 -6.296875 C 3.523438 -6.296875 3.9375 -6.179688 4.324219 -5.949219 C 4.710938 -5.71875 5.007812 -5.402344 5.214844 -4.992188 C 5.371094 -4.683594 5.480469 -4.285156 5.539062 -3.796875 C 5.570312 -3.566406 5.585938 -3.390625 5.585938 -3.269531 L 2.1875 -3.269531 C 2.21875 -2.734375 2.304688 -2.273438 2.449219 -1.882812 C 2.707031 -1.148438 3.167969 -0.78125 3.820312 -0.78125 C 4.132812 -0.78125 4.429688 -0.878906 4.707031 -1.074219 C 4.875 -1.191406 5.085938 -1.390625 5.339844 -1.667969 L 5.644531 -1.476562 C 5.230469 -0.800781 4.753906 -0.328125 4.210938 -0.0664062 C 3.859375 0.105469 3.457031 0.1875 3 0.1875 C 2.34375 0.1875 1.730469 -0.0703125 1.160156 -0.585938 C 0.585938 -1.101562 0.300781 -1.925781 0.300781 -3.058594 Z M 3.945312 -3.761719 C 3.9375 -4.546875 3.875 -5.097656 3.761719 -5.410156 C 3.648438 -5.722656 3.425781 -5.878906 3.085938 -5.878906 C 2.738281 -5.878906 2.5 -5.699219 2.371094 -5.339844 C 2.246094 -4.980469 2.171875 -4.453125 2.15625 -3.761719 Z "/>
</g>
<g id="glyph-0-3">
<rect x="0" y="0" width="0" height="0" mask="url(#mask-0)"/>
</g>
<g id="glyph-0-4">
<path d="M 3.484375 -4.503906 C 4.277344 -4.519531 4.808594 -4.609375 5.070312 -4.777344 C 5.492188 -5.046875 5.703125 -5.628906 5.703125 -6.515625 C 5.703125 -7.125 5.601562 -7.613281 5.398438 -7.988281 C 5.195312 -8.363281 4.800781 -8.546875 4.226562 -8.546875 C 3.960938 -8.546875 3.769531 -8.515625 3.65625 -8.453125 C 3.539062 -8.390625 3.484375 -8.269531 3.484375 -8.085938 Z M 0.214844 -0.339844 C 0.652344 -0.371094 0.945312 -0.460938 1.097656 -0.613281 C 1.246094 -0.769531 1.320312 -1.082031 1.320312 -1.554688 L 1.320312 -7.449219 C 1.320312 -7.953125 1.246094 -8.269531 1.09375 -8.402344 C 0.941406 -8.535156 0.648438 -8.625 0.214844 -8.671875 L 0.214844 -9.011719 L 4.503906 -9.011719 C 5.640625 -9.011719 6.507812 -8.824219 7.097656 -8.457031 C 7.691406 -8.089844 7.988281 -7.453125 7.988281 -6.554688 C 7.988281 -6.117188 7.871094 -5.707031 7.640625 -5.320312 C 7.40625 -4.9375 7.023438 -4.628906 6.492188 -4.394531 C 6.085938 -4.230469 5.683594 -4.128906 5.28125 -4.09375 C 4.875 -4.058594 4.277344 -4.042969 3.484375 -4.042969 L 3.484375 -1.554688 C 3.484375 -1.066406 3.566406 -0.746094 3.730469 -0.59375 C 3.894531 -0.441406 4.203125 -0.355469 4.65625 -0.339844 L 4.65625 0 L 0.214844 0 Z "/>
</g>
<g id="glyph-0-5">
<path d="M 0.292969 -3.054688 C 0.292969 -3.984375 0.578125 -4.757812 1.148438 -5.378906 C 1.71875 -6 2.4375 -6.308594 3.300781 -6.308594 C 4.183594 -6.308594 4.902344 -5.992188 5.464844 -5.359375 C 6.027344 -4.726562 6.308594 -3.957031 6.308594 -3.054688 C 6.308594 -2.164062 6.03125 -1.398438 5.476562 -0.757812 C 4.921875 -0.117188 4.195312 0.203125 3.300781 0.203125 C 2.433594 0.203125 1.714844 -0.109375 1.144531 -0.730469 C 0.578125 -1.355469 0.292969 -2.128906 0.292969 -3.054688 Z M 2.253906 -3.054688 C 2.253906 -2.121094 2.300781 -1.46875 2.394531 -1.09375 C 2.546875 -0.515625 2.847656 -0.226562 3.300781 -0.226562 C 3.730469 -0.226562 4.011719 -0.449219 4.148438 -0.890625 C 4.28125 -1.335938 4.347656 -2.054688 4.347656 -3.054688 C 4.347656 -4.046875 4.277344 -4.765625 4.136719 -5.210938 C 3.996094 -5.65625 3.71875 -5.878906 3.308594 -5.878906 C 2.855469 -5.878906 2.554688 -5.589844 2.402344 -5.011719 C 2.300781 -4.625 2.253906 -3.972656 2.253906 -3.054688 Z "/>
</g>
<g id="glyph-0-6">
<path d="M 3.175781 -6.140625 L 3.175781 -5.8125 C 3.023438 -5.800781 2.902344 -5.769531 2.804688 -5.71875 C 2.710938 -5.667969 2.664062 -5.570312 2.664062 -5.417969 C 2.664062 -5.363281 2.667969 -5.316406 2.683594 -5.265625 C 2.695312 -5.21875 2.722656 -5.144531 2.761719 -5.046875 L 3.75 -2.433594 L 3.820312 -2.433594 L 4.6875 -4.628906 C 4.6875 -4.660156 4.652344 -4.789062 4.582031 -5.023438 C 4.511719 -5.253906 4.457031 -5.417969 4.40625 -5.507812 C 4.335938 -5.628906 4.273438 -5.707031 4.207031 -5.734375 C 4.144531 -5.765625 4.015625 -5.792969 3.820312 -5.8125 L 3.820312 -6.140625 L 6.941406 -6.140625 L 6.941406 -5.8125 C 6.75 -5.804688 6.597656 -5.78125 6.480469 -5.742188 C 6.367188 -5.703125 6.308594 -5.628906 6.308594 -5.515625 C 6.308594 -5.449219 6.316406 -5.375 6.332031 -5.289062 C 6.347656 -5.203125 6.375 -5.089844 6.417969 -4.949219 L 7.097656 -2.558594 L 7.175781 -2.558594 L 8.132812 -5.105469 C 8.144531 -5.148438 8.15625 -5.1875 8.164062 -5.226562 C 8.171875 -5.265625 8.175781 -5.304688 8.175781 -5.339844 C 8.175781 -5.527344 8.121094 -5.648438 8.011719 -5.703125 C 7.902344 -5.757812 7.738281 -5.796875 7.527344 -5.8125 L 7.527344 -6.140625 L 9.335938 -6.140625 L 9.335938 -5.8125 C 9.175781 -5.78125 9.046875 -5.726562 8.953125 -5.648438 C 8.859375 -5.566406 8.765625 -5.402344 8.671875 -5.148438 L 6.601562 0.1875 L 6.296875 0.1875 L 4.949219 -3.855469 L 4.890625 -3.855469 L 3.269531 0.1875 L 2.941406 0.1875 L 0.96875 -4.796875 C 0.804688 -5.210938 0.683594 -5.472656 0.605469 -5.589844 C 0.527344 -5.703125 0.398438 -5.777344 0.214844 -5.8125 L 0.214844 -6.140625 Z "/>
</g>
<g id="glyph-0-7">
<path d="M 0.242188 -0.320312 C 0.496094 -0.351562 0.675781 -0.410156 0.773438 -0.5 C 0.875 -0.59375 0.929688 -0.769531 0.9375 -1.027344 L 0.949219 -1.417969 L 0.949219 -5.046875 C 0.949219 -5.324219 0.902344 -5.511719 0.808594 -5.613281 C 0.710938 -5.710938 0.523438 -5.777344 0.242188 -5.8125 L 0.242188 -6.140625 L 2.773438 -6.140625 L 2.773438 -5.089844 C 3.054688 -5.460938 3.335938 -5.753906 3.613281 -5.96875 C 3.890625 -6.1875 4.210938 -6.296875 4.578125 -6.296875 C 4.851562 -6.296875 5.097656 -6.207031 5.316406 -6.03125 C 5.535156 -5.855469 5.644531 -5.597656 5.644531 -5.261719 C 5.644531 -5 5.566406 -4.785156 5.414062 -4.617188 C 5.257812 -4.445312 5.058594 -4.363281 4.8125 -4.363281 C 4.53125 -4.363281 4.285156 -4.496094 4.078125 -4.757812 C 3.871094 -5.023438 3.726562 -5.15625 3.644531 -5.15625 C 3.46875 -5.15625 3.289062 -5.046875 3.109375 -4.828125 C 2.929688 -4.609375 2.839844 -4.292969 2.839844 -3.886719 L 2.839844 -1.367188 C 2.839844 -0.925781 2.902344 -0.648438 3.03125 -0.535156 C 3.160156 -0.425781 3.414062 -0.355469 3.796875 -0.320312 L 3.796875 0 L 0.242188 0 Z "/>
</g>
<g id="glyph-0-8">
<path d="M 0.183594 -0.320312 C 0.457031 -0.339844 0.652344 -0.402344 0.769531 -0.5 C 0.890625 -0.601562 0.949219 -0.808594 0.949219 -1.125 L 0.949219 -5.460938 L 0.183594 -5.460938 L 0.183594 -6.046875 L 0.949219 -6.046875 L 0.949219 -6.542969 C 0.949219 -7.164062 1.046875 -7.671875 1.242188 -8.074219 C 1.613281 -8.820312 2.292969 -9.191406 3.289062 -9.191406 C 3.816406 -9.191406 4.265625 -9.070312 4.632812 -8.832031 C 5 -8.589844 5.183594 -8.273438 5.183594 -7.878906 C 5.183594 -7.628906 5.105469 -7.429688 4.949219 -7.277344 C 4.796875 -7.125 4.59375 -7.050781 4.335938 -7.050781 C 4.125 -7.050781 3.941406 -7.121094 3.789062 -7.257812 C 3.636719 -7.398438 3.5625 -7.566406 3.5625 -7.761719 C 3.5625 -7.910156 3.609375 -8.0625 3.707031 -8.226562 C 3.804688 -8.390625 3.855469 -8.488281 3.855469 -8.523438 C 3.855469 -8.632812 3.816406 -8.699219 3.738281 -8.730469 C 3.660156 -8.761719 3.574219 -8.777344 3.484375 -8.777344 C 3.265625 -8.777344 3.097656 -8.714844 2.980469 -8.585938 C 2.863281 -8.460938 2.804688 -8.191406 2.804688 -7.773438 L 2.804688 -6.046875 L 3.964844 -6.046875 L 3.964844 -5.460938 L 2.804688 -5.460938 L 2.804688 -1.367188 C 2.804688 -0.90625 2.871094 -0.625 3.003906 -0.519531 C 3.136719 -0.417969 3.429688 -0.347656 3.886719 -0.320312 L 3.886719 0 L 0.183594 0 Z "/>
</g>
<g id="glyph-0-9">
<path d="M 0.214844 -0.339844 C 0.597656 -0.351562 0.867188 -0.402344 1.027344 -0.496094 C 1.277344 -0.632812 1.398438 -0.894531 1.398438 -1.277344 L 1.398438 -7.726562 C 1.398438 -8.113281 1.277344 -8.375 1.035156 -8.507812 C 0.886719 -8.589844 0.613281 -8.644531 0.214844 -8.671875 L 0.214844 -9.011719 L 7.773438 -9.011719 L 7.773438 -6.320312 L 7.449219 -6.320312 C 7.285156 -7.148438 7.003906 -7.730469 6.613281 -8.0625 C 6.222656 -8.394531 5.503906 -8.5625 4.453125 -8.5625 C 4.0625 -8.5625 3.8125 -8.515625 3.707031 -8.425781 C 3.601562 -8.339844 3.546875 -8.171875 3.546875 -7.929688 L 3.546875 -4.84375 C 4.269531 -4.832031 4.753906 -4.984375 5.007812 -5.300781 C 5.261719 -5.617188 5.457031 -6.121094 5.585938 -6.816406 L 5.925781 -6.816406 L 5.925781 -2.3125 L 5.585938 -2.3125 C 5.496094 -3.03125 5.3125 -3.558594 5.035156 -3.886719 C 4.761719 -4.214844 4.265625 -4.382812 3.546875 -4.382812 L 3.546875 -1.277344 C 3.546875 -0.863281 3.667969 -0.601562 3.910156 -0.492188 C 4.152344 -0.382812 4.519531 -0.328125 5.011719 -0.339844 L 5.011719 0 L 0.214844 0 Z "/>
</g>
<g id="glyph-0-10">
<path d="M 0.214844 -0.320312 C 0.449219 -0.375 0.613281 -0.449219 0.710938 -0.542969 C 0.808594 -0.636719 0.859375 -0.832031 0.859375 -1.125 L 0.859375 -7.917969 C 0.859375 -8.199219 0.8125 -8.382812 0.722656 -8.46875 C 0.632812 -8.554688 0.460938 -8.628906 0.214844 -8.683594 L 0.214844 -9.011719 L 2.742188 -9.011719 L 2.742188 -1.125 C 2.742188 -0.832031 2.789062 -0.636719 2.882812 -0.546875 C 2.980469 -0.457031 3.148438 -0.378906 3.390625 -0.320312 L 3.390625 0 L 0.214844 0 Z "/>
</g>
<g id="glyph-0-11">
<path d="M 2.921875 -0.761719 C 3.140625 -0.761719 3.34375 -0.828125 3.527344 -0.957031 C 3.632812 -1.035156 3.757812 -1.15625 3.898438 -1.320312 L 3.898438 -3.269531 C 3.542969 -3.183594 3.230469 -3.042969 2.960938 -2.859375 C 2.507812 -2.542969 2.277344 -2.136719 2.277344 -1.648438 C 2.277344 -1.355469 2.34375 -1.136719 2.476562 -0.984375 C 2.609375 -0.835938 2.757812 -0.761719 2.921875 -0.761719 Z M 0.339844 -1.242188 C 0.339844 -1.84375 0.628906 -2.316406 1.203125 -2.667969 C 1.78125 -3.019531 2.6875 -3.375 3.917969 -3.730469 L 3.917969 -4.699219 C 3.917969 -5.09375 3.835938 -5.386719 3.667969 -5.574219 C 3.5 -5.765625 3.207031 -5.859375 2.78125 -5.859375 C 2.542969 -5.859375 2.34375 -5.816406 2.191406 -5.726562 C 2.035156 -5.636719 1.960938 -5.523438 1.960938 -5.390625 C 1.960938 -5.339844 1.96875 -5.296875 1.984375 -5.261719 C 2.003906 -5.226562 2.027344 -5.1875 2.0625 -5.148438 L 2.140625 -5.058594 C 2.203125 -4.984375 2.25 -4.902344 2.289062 -4.8125 C 2.324219 -4.726562 2.34375 -4.632812 2.34375 -4.53125 C 2.34375 -4.28125 2.261719 -4.085938 2.09375 -3.949219 C 1.925781 -3.8125 1.730469 -3.742188 1.511719 -3.742188 C 1.253906 -3.742188 1.035156 -3.820312 0.855469 -3.972656 C 0.675781 -4.125 0.585938 -4.34375 0.585938 -4.628906 C 0.585938 -5.140625 0.828125 -5.546875 1.308594 -5.847656 C 1.789062 -6.144531 2.382812 -6.296875 3.085938 -6.296875 C 3.839844 -6.296875 4.472656 -6.148438 4.980469 -5.859375 C 5.484375 -5.5625 5.734375 -5.023438 5.734375 -4.230469 L 5.734375 -1.003906 C 5.734375 -0.90625 5.761719 -0.824219 5.808594 -0.757812 C 5.859375 -0.691406 5.914062 -0.65625 5.976562 -0.65625 C 6.027344 -0.65625 6.074219 -0.667969 6.117188 -0.6875 C 6.15625 -0.707031 6.222656 -0.757812 6.308594 -0.847656 L 6.511719 -0.566406 C 6.25 -0.261719 5.960938 -0.0507812 5.644531 0.0703125 C 5.445312 0.148438 5.234375 0.1875 5.011719 0.1875 C 4.617188 0.1875 4.328125 0.0742188 4.148438 -0.15625 C 4.042969 -0.285156 3.96875 -0.480469 3.917969 -0.734375 C 3.550781 -0.367188 3.132812 -0.105469 2.667969 0.046875 C 2.386719 0.140625 2.109375 0.1875 1.835938 0.1875 C 1.472656 0.1875 1.128906 0.0742188 0.8125 -0.160156 C 0.496094 -0.390625 0.339844 -0.753906 0.339844 -1.242188 Z "/>
</g>
<g id="glyph-0-12">
<path d="M 0.214844 -5.554688 L 0.214844 -5.925781 C 0.332031 -6.035156 0.476562 -6.160156 0.652344 -6.308594 C 0.882812 -6.519531 1.097656 -6.742188 1.300781 -6.964844 C 1.707031 -7.410156 2.074219 -7.882812 2.402344 -8.390625 L 2.742188 -8.390625 L 2.742188 -6.140625 L 4.011719 -6.140625 L 4.011719 -5.554688 L 2.742188 -5.554688 L 2.742188 -1.542969 C 2.742188 -1.355469 2.769531 -1.199219 2.824219 -1.074219 C 2.910156 -0.878906 3.054688 -0.78125 3.253906 -0.78125 C 3.429688 -0.78125 3.574219 -0.84375 3.691406 -0.964844 C 3.808594 -1.089844 3.925781 -1.261719 4.042969 -1.476562 L 4.363281 -1.320312 C 4.207031 -0.957031 4.019531 -0.660156 3.800781 -0.429688 C 3.417969 -0.0273438 2.953125 0.175781 2.402344 0.175781 C 2.089844 0.175781 1.816406 0.117188 1.582031 0 C 1.128906 -0.226562 0.90625 -0.636719 0.90625 -1.230469 L 0.90625 -5.554688 Z "/>
</g>
<g id="glyph-0-13">
<path d="M 0.800781 -8.175781 C 0.800781 -8.464844 0.902344 -8.707031 1.101562 -8.910156 C 1.304688 -9.113281 1.550781 -9.210938 1.835938 -9.210938 C 2.117188 -9.210938 2.359375 -9.109375 2.5625 -8.910156 C 2.765625 -8.707031 2.863281 -8.464844 2.863281 -8.175781 C 2.863281 -7.890625 2.761719 -7.644531 2.5625 -7.445312 C 2.359375 -7.242188 2.117188 -7.140625 1.835938 -7.140625 C 1.550781 -7.140625 1.304688 -7.242188 1.101562 -7.445312 C 0.902344 -7.648438 0.800781 -7.890625 0.800781 -8.175781 Z M 0.214844 -0.320312 C 0.449219 -0.359375 0.609375 -0.417969 0.695312 -0.496094 C 0.828125 -0.613281 0.890625 -0.824219 0.890625 -1.125 L 0.890625 -5.046875 C 0.890625 -5.316406 0.847656 -5.496094 0.753906 -5.59375 C 0.664062 -5.691406 0.484375 -5.765625 0.214844 -5.8125 L 0.214844 -6.140625 L 2.773438 -6.140625 L 2.773438 -1.074219 C 2.773438 -0.785156 2.816406 -0.597656 2.902344 -0.515625 C 2.988281 -0.433594 3.152344 -0.367188 3.390625 -0.320312 L 3.390625 0 L 0.214844 0 Z "/>
</g>
<g id="glyph-0-14">
<path d="M 0.214844 -0.320312 C 0.457031 -0.351562 0.636719 -0.414062 0.75 -0.515625 C 0.867188 -0.617188 0.925781 -0.824219 0.925781 -1.125 L 0.925781 -5.046875 C 0.925781 -5.316406 0.878906 -5.5 0.785156 -5.605469 C 0.691406 -5.710938 0.5 -5.777344 0.214844 -5.8125 L 0.214844 -6.140625 L 2.742188 -6.140625 L 2.742188 -5.183594 C 2.953125 -5.503906 3.222656 -5.769531 3.550781 -5.980469 C 3.878906 -6.191406 4.242188 -6.296875 4.640625 -6.296875 C 5.214844 -6.296875 5.660156 -6.148438 5.972656 -5.851562 C 6.289062 -5.558594 6.445312 -5.039062 6.445312 -4.296875 L 6.445312 -1.074219 C 6.445312 -0.773438 6.496094 -0.582031 6.597656 -0.496094 C 6.699219 -0.410156 6.871094 -0.347656 7.109375 -0.320312 L 7.109375 0 L 3.976562 0 L 3.976562 -0.320312 C 4.214844 -0.367188 4.378906 -0.433594 4.464844 -0.515625 C 4.550781 -0.597656 4.597656 -0.785156 4.597656 -1.074219 L 4.597656 -4.304688 C 4.597656 -4.609375 4.566406 -4.835938 4.503906 -4.988281 C 4.402344 -5.261719 4.195312 -5.398438 3.886719 -5.398438 C 3.65625 -5.398438 3.445312 -5.3125 3.25 -5.144531 C 3.058594 -4.980469 2.910156 -4.8125 2.804688 -4.640625 L 2.804688 -1.074219 C 2.804688 -0.785156 2.847656 -0.597656 2.9375 -0.515625 C 3.023438 -0.433594 3.1875 -0.367188 3.425781 -0.320312 L 3.425781 0 L 0.214844 0 Z "/>
</g>
<g id="glyph-0-15">
<path d="M 2.253906 -4.148438 C 2.253906 -3.636719 2.296875 -3.253906 2.382812 -3.007812 C 2.511719 -2.617188 2.761719 -2.421875 3.132812 -2.421875 C 3.464844 -2.421875 3.695312 -2.566406 3.820312 -2.859375 C 3.945312 -3.152344 4.011719 -3.582031 4.011719 -4.148438 C 4.011719 -4.746094 3.945312 -5.183594 3.8125 -5.457031 C 3.679688 -5.730469 3.453125 -5.867188 3.132812 -5.867188 C 2.78125 -5.867188 2.546875 -5.71875 2.429688 -5.425781 C 2.3125 -5.132812 2.253906 -4.707031 2.253906 -4.148438 Z M 1.476562 1.453125 C 1.476562 1.726562 1.625 1.941406 1.917969 2.097656 C 2.210938 2.253906 2.632812 2.332031 3.191406 2.332031 C 3.683594 2.332031 4.09375 2.292969 4.414062 2.214844 C 5.015625 2.066406 5.320312 1.792969 5.320312 1.398438 C 5.320312 1.167969 5.234375 0.996094 5.0625 0.882812 C 4.890625 0.765625 4.578125 0.710938 4.128906 0.710938 L 1.941406 0.710938 C 1.800781 0.824219 1.703125 0.917969 1.640625 0.996094 C 1.53125 1.140625 1.476562 1.292969 1.476562 1.453125 Z M 0.304688 1.542969 C 0.304688 1.351562 0.386719 1.15625 0.542969 0.953125 C 0.703125 0.75 0.976562 0.621094 1.367188 0.558594 L 1.367188 0.46875 C 1.105469 0.367188 0.917969 0.265625 0.800781 0.164062 C 0.59375 -0.0234375 0.488281 -0.273438 0.488281 -0.585938 C 0.488281 -0.960938 0.652344 -1.277344 0.980469 -1.542969 C 1.308594 -1.808594 1.628906 -1.992188 1.941406 -2.097656 L 1.941406 -2.1875 C 1.488281 -2.371094 1.125 -2.628906 0.847656 -2.96875 C 0.570312 -3.308594 0.429688 -3.71875 0.429688 -4.199219 C 0.429688 -4.808594 0.671875 -5.308594 1.160156 -5.703125 C 1.644531 -6.097656 2.300781 -6.296875 3.132812 -6.296875 C 3.445312 -6.296875 3.730469 -6.265625 3.992188 -6.203125 C 4.25 -6.144531 4.453125 -6.082031 4.597656 -6.015625 L 6.355469 -6.015625 L 6.355469 -5.304688 L 5.273438 -5.304688 C 5.445312 -5.136719 5.582031 -4.9375 5.671875 -4.714844 C 5.765625 -4.488281 5.8125 -4.242188 5.8125 -3.976562 C 5.8125 -3.144531 5.417969 -2.574219 4.621094 -2.265625 C 4.207031 -2.101562 3.6875 -2.019531 3.066406 -2.019531 C 2.933594 -2.019531 2.84375 -2.019531 2.800781 -2.023438 C 2.761719 -2.027344 2.699219 -2.03125 2.617188 -2.03125 C 2.488281 -2.007812 2.351562 -1.941406 2.207031 -1.824219 C 2.058594 -1.703125 1.984375 -1.554688 1.984375 -1.386719 C 1.984375 -1.253906 2.023438 -1.148438 2.097656 -1.074219 C 2.171875 -1 2.273438 -0.953125 2.402344 -0.9375 C 2.46875 -0.929688 2.605469 -0.921875 2.820312 -0.914062 C 3.03125 -0.90625 3.195312 -0.90625 3.3125 -0.90625 L 4.179688 -0.890625 C 4.671875 -0.882812 5.082031 -0.8125 5.417969 -0.675781 C 6.054688 -0.417969 6.375 0.0507812 6.375 0.722656 C 6.375 1.589844 5.894531 2.1875 4.941406 2.511719 C 4.4375 2.683594 3.804688 2.765625 3.039062 2.765625 C 2.414062 2.765625 1.878906 2.707031 1.425781 2.585938 C 0.679688 2.382812 0.304688 2.035156 0.304688 1.542969 Z "/>
</g>
<g id="glyph-0-16">
<path d="M 0.214844 -0.339844 C 0.710938 -0.351562 1.027344 -0.445312 1.171875 -0.621094 C 1.316406 -0.796875 1.386719 -1.058594 1.386719 -1.398438 L 1.386719 -7.714844 C 0.980469 -8.171875 0.726562 -8.4375 0.632812 -8.519531 C 0.535156 -8.597656 0.40625 -8.648438 0.242188 -8.671875 L 0.242188 -9.011719 L 3.066406 -9.011719 L 7.648438 -3.390625 L 7.714844 -3.390625 L 7.714844 -7.355469 C 7.714844 -7.808594 7.632812 -8.128906 7.46875 -8.324219 C 7.304688 -8.515625 6.972656 -8.632812 6.476562 -8.671875 L 6.476562 -9.011719 L 9.347656 -9.011719 L 9.347656 -8.671875 C 8.933594 -8.601562 8.652344 -8.507812 8.511719 -8.390625 C 8.371094 -8.273438 8.300781 -8.011719 8.300781 -7.605469 L 8.300781 0.246094 L 7.929688 0.246094 L 2.0625 -6.882812 L 1.972656 -6.882812 L 1.972656 -1.648438 C 1.972656 -1.238281 2.027344 -0.949219 2.140625 -0.78125 C 2.320312 -0.507812 2.683594 -0.359375 3.234375 -0.339844 L 3.234375 0 L 0.214844 0 Z "/>
</g>
<g id="glyph-0-17">
<path d="M 2.726562 -6.140625 L 2.726562 -1.613281 C 2.726562 -1.34375 2.761719 -1.148438 2.824219 -1.023438 C 2.9375 -0.800781 3.160156 -0.691406 3.496094 -0.691406 C 3.707031 -0.691406 3.917969 -0.757812 4.121094 -0.890625 C 4.238281 -0.964844 4.386719 -1.089844 4.5625 -1.261719 L 4.5625 -5.046875 C 4.5625 -5.324219 4.507812 -5.515625 4.398438 -5.628906 C 4.289062 -5.738281 4.066406 -5.800781 3.730469 -5.8125 L 3.730469 -6.140625 L 6.386719 -6.140625 L 6.386719 -1.339844 C 6.386719 -1.0625 6.4375 -0.871094 6.542969 -0.765625 C 6.648438 -0.660156 6.851562 -0.59375 7.15625 -0.566406 L 7.15625 -0.261719 C 6.332031 -0.183594 5.808594 -0.125 5.59375 -0.0859375 C 5.378906 -0.0507812 5.035156 0.0429688 4.5625 0.1875 L 4.5625 -0.691406 C 4.246094 -0.417969 3.984375 -0.222656 3.777344 -0.109375 C 3.410156 0.0898438 3.03125 0.1875 2.636719 0.1875 C 2.207031 0.1875 1.804688 0.0507812 1.433594 -0.222656 C 1.0625 -0.496094 0.878906 -0.980469 0.878906 -1.679688 L 0.878906 -5.046875 C 0.878906 -5.328125 0.832031 -5.511719 0.742188 -5.597656 C 0.652344 -5.683594 0.476562 -5.757812 0.214844 -5.8125 L 0.214844 -6.140625 Z "/>
</g>
<g id="glyph-0-18">
<path d="M 0.214844 -0.320312 C 0.457031 -0.351562 0.625 -0.402344 0.714844 -0.476562 C 0.863281 -0.59375 0.9375 -0.808594 0.9375 -1.125 L 0.9375 -5.046875 C 0.9375 -5.324219 0.886719 -5.511719 0.789062 -5.613281 C 0.6875 -5.710938 0.496094 -5.777344 0.214844 -5.8125 L 0.214844 -6.140625 L 2.742188 -6.140625 L 2.742188 -5.183594 C 2.960938 -5.472656 3.175781 -5.699219 3.386719 -5.859375 C 3.773438 -6.148438 4.203125 -6.296875 4.675781 -6.296875 C 5.207031 -6.296875 5.621094 -6.167969 5.917969 -5.917969 C 6.082031 -5.773438 6.238281 -5.539062 6.386719 -5.214844 L 6.476562 -5.214844 C 6.730469 -5.523438 6.96875 -5.753906 7.199219 -5.910156 C 7.566406 -6.167969 7.960938 -6.296875 8.390625 -6.296875 C 8.859375 -6.296875 9.273438 -6.144531 9.632812 -5.847656 C 9.992188 -5.546875 10.167969 -5.074219 10.167969 -4.425781 L 10.167969 -1.074219 C 10.167969 -0.765625 10.21875 -0.570312 10.320312 -0.484375 C 10.417969 -0.398438 10.59375 -0.34375 10.847656 -0.320312 L 10.847656 0 L 7.683594 0 L 7.683594 -0.320312 C 7.925781 -0.355469 8.09375 -0.414062 8.191406 -0.496094 C 8.285156 -0.582031 8.332031 -0.773438 8.332031 -1.074219 L 8.332031 -4.304688 C 8.332031 -4.652344 8.28125 -4.917969 8.179688 -5.109375 C 8.078125 -5.300781 7.882812 -5.398438 7.597656 -5.398438 C 7.367188 -5.398438 7.125 -5.292969 6.871094 -5.082031 C 6.617188 -4.871094 6.492188 -4.722656 6.492188 -4.640625 L 6.492188 -1.074219 C 6.492188 -0.785156 6.535156 -0.597656 6.621094 -0.515625 C 6.707031 -0.433594 6.871094 -0.367188 7.109375 -0.320312 L 7.109375 0 L 3.992188 0 L 3.992188 -0.320312 C 4.226562 -0.351562 4.390625 -0.40625 4.492188 -0.492188 C 4.59375 -0.578125 4.640625 -0.769531 4.640625 -1.074219 L 4.640625 -4.304688 C 4.640625 -4.640625 4.59375 -4.910156 4.5 -5.105469 C 4.402344 -5.300781 4.207031 -5.398438 3.90625 -5.398438 C 3.632812 -5.398438 3.378906 -5.285156 3.144531 -5.0625 C 2.910156 -4.839844 2.792969 -4.699219 2.792969 -4.640625 L 2.792969 -1.074219 C 2.792969 -0.785156 2.835938 -0.597656 2.917969 -0.515625 C 3 -0.433594 3.160156 -0.367188 3.40625 -0.320312 L 3.40625 0 L 0.214844 0 Z "/>
</g>
<g id="glyph-0-19">
<path d="M 2.804688 -1.296875 C 2.824219 -1.054688 2.871094 -0.851562 2.949219 -0.695312 C 3.105469 -0.390625 3.367188 -0.242188 3.730469 -0.242188 C 4.1875 -0.242188 4.507812 -0.480469 4.695312 -0.964844 C 4.886719 -1.445312 4.980469 -2.125 4.980469 -3.007812 C 4.980469 -3.707031 4.898438 -4.308594 4.730469 -4.8125 C 4.5625 -5.316406 4.234375 -5.566406 3.75 -5.566406 C 3.464844 -5.566406 3.234375 -5.460938 3.0625 -5.25 C 2.890625 -5.039062 2.804688 -4.890625 2.804688 -4.796875 Z M 2.804688 -9.011719 L 2.804688 -5.554688 C 3.015625 -5.757812 3.207031 -5.910156 3.386719 -6.015625 C 3.710938 -6.203125 4.0625 -6.296875 4.441406 -6.296875 C 5.191406 -6.296875 5.796875 -6.003906 6.253906 -5.417969 C 6.710938 -4.832031 6.941406 -4.109375 6.941406 -3.253906 C 6.941406 -2.152344 6.648438 -1.304688 6.0625 -0.707031 C 5.480469 -0.109375 4.753906 0.1875 3.886719 0.1875 C 3.53125 0.1875 3.214844 0.121094 2.941406 -0.0195312 C 2.667969 -0.160156 2.414062 -0.339844 2.175781 -0.566406 L 1.125 0.1875 L 0.9375 0.1875 L 0.9375 -7.917969 C 0.9375 -8.195312 0.886719 -8.382812 0.789062 -8.480469 C 0.6875 -8.578125 0.5 -8.644531 0.226562 -8.683594 L 0.226562 -9.011719 Z "/>
</g>
<g id="glyph-0-20">
<path d="M 0.339844 -2.019531 L 0.710938 -2.019531 C 0.839844 -1.378906 1.082031 -0.929688 1.4375 -0.667969 C 1.792969 -0.40625 2.160156 -0.273438 2.53125 -0.273438 C 2.875 -0.273438 3.128906 -0.351562 3.289062 -0.503906 C 3.449219 -0.660156 3.527344 -0.863281 3.527344 -1.113281 C 3.527344 -1.351562 3.441406 -1.554688 3.269531 -1.726562 C 3.171875 -1.816406 3.019531 -1.914062 2.804688 -2.019531 L 1.816406 -2.5 C 1.296875 -2.757812 0.921875 -3.035156 0.695312 -3.332031 C 0.464844 -3.632812 0.351562 -3.988281 0.351562 -4.394531 C 0.351562 -4.910156 0.53125 -5.355469 0.890625 -5.730469 C 1.25 -6.105469 1.753906 -6.296875 2.402344 -6.296875 C 2.683594 -6.296875 2.984375 -6.25 3.300781 -6.15625 C 3.617188 -6.0625 3.816406 -6.015625 3.894531 -6.015625 C 4.003906 -6.015625 4.078125 -6.039062 4.125 -6.082031 C 4.171875 -6.128906 4.207031 -6.195312 4.238281 -6.277344 L 4.53125 -6.277344 L 4.53125 -4.347656 L 4.191406 -4.347656 C 4.066406 -4.800781 3.859375 -5.164062 3.574219 -5.4375 C 3.289062 -5.710938 2.953125 -5.847656 2.570312 -5.847656 C 2.277344 -5.847656 2.054688 -5.765625 1.910156 -5.597656 C 1.765625 -5.433594 1.691406 -5.257812 1.691406 -5.066406 C 1.691406 -4.910156 1.757812 -4.753906 1.886719 -4.597656 C 2.011719 -4.4375 2.253906 -4.269531 2.605469 -4.101562 L 3.332031 -3.75 C 3.785156 -3.53125 4.113281 -3.324219 4.324219 -3.117188 C 4.671875 -2.769531 4.84375 -2.34375 4.84375 -1.835938 C 4.84375 -1.339844 4.664062 -0.878906 4.304688 -0.453125 C 3.949219 -0.0234375 3.410156 0.1875 2.695312 0.1875 C 2.515625 0.1875 2.339844 0.171875 2.15625 0.132812 C 1.976562 0.0976562 1.753906 0.03125 1.492188 -0.0585938 L 1.261719 -0.136719 C 1.179688 -0.167969 1.128906 -0.183594 1.109375 -0.1875 C 1.089844 -0.191406 1.066406 -0.195312 1.035156 -0.195312 C 0.960938 -0.195312 0.898438 -0.164062 0.84375 -0.105469 C 0.789062 -0.046875 0.726562 0.0507812 0.65625 0.1875 L 0.339844 0.1875 Z "/>
</g>
</g>
<image id="source-8" x="0" y="0" width="0" height="0"/>
<mask id="mask-0">
<use xlink:href="#source-8"/>
</mask>
</defs>
<g fill="rgb(100%, 100%, 100%)" fill-opacity="1">
<use xlink:href="#glyph-0-0" x="30" y="30"/>
<use xlink:href="#glyph-0-1" x="39" y="30"/>
<use xlink:href="#glyph-0-2" x="46" y="30"/>
<use xlink:href="#glyph-0-3" x="52" y="30"/>
<use xlink:href="#glyph-0-4" x="55" y="30"/>
<use xlink:href="#glyph-0-5" x="63" y="30"/>
<use xlink:href="#glyph-0-6" x="70" y="30"/>
<use xlink:href="#glyph-0-2" x="80" y="30"/>
<use xlink:href="#glyph-0-7" x="86" y="30"/>
<use xlink:href="#glyph-0-3" x="92" y="30"/>
<use xlink:href="#glyph-0-5" x="95" y="30"/>
<use xlink:href="#glyph-0-8" x="102" y="30"/>
<use xlink:href="#glyph-0-3" x="106" y="30"/>
<use xlink:href="#glyph-0-9" x="109" y="30"/>
<use xlink:href="#glyph-0-10" x="117" y="30"/>
<use xlink:href="#glyph-0-5" x="121" y="30"/>
<use xlink:href="#glyph-0-11" x="128" y="30"/>
<use xlink:href="#glyph-0-12" x="135" y="30"/>
<use xlink:href="#glyph-0-13" x="139" y="30"/>
<use xlink:href="#glyph-0-14" x="143" y="30"/>
<use xlink:href="#glyph-0-15" x="150" y="30"/>
<use xlink:href="#glyph-0-3" x="157" y="30"/>
<use xlink:href="#glyph-0-4" x="160" y="30"/>
<use xlink:href="#glyph-0-5" x="168" y="30"/>
<use xlink:href="#glyph-0-13" x="175" y="30"/>
<use xlink:href="#glyph-0-14" x="179" y="30"/>
<use xlink:href="#glyph-0-12" x="186" y="30"/>
<use xlink:href="#glyph-0-3" x="190" y="30"/>
<use xlink:href="#glyph-0-16" x="193" y="30"/>
<use xlink:href="#glyph-0-17" x="203" y="30"/>
<use xlink:href="#glyph-0-18" x="210" y="30"/>
<use xlink:href="#glyph-0-19" x="221" y="30"/>
<use xlink:href="#glyph-0-2" x="228" y="30"/>
<use xlink:href="#glyph-0-7" x="234" y="30"/>
<use xlink:href="#glyph-0-20" x="240" y="30"/>
</g>
</svg>
